<?xml version="1.0" encoding="utf-8"?>
<!-- Generator: Adobe Illustrator 25.4.1, SVG Export Plug-In . SVG Version: 6.00 Build 0)  -->
<svg version="1.1" id="Layer_1" xmlns="http://www.w3.org/2000/svg" xmlns:xlink="http://www.w3.org/1999/xlink" x="0px" y="0px"
	 viewBox="0 0 4000 4000" style="enable-background:new 0 0 4000 4000;" xml:space="preserve">
<style type="text/css">
	.st0{fill-rule:evenodd;clip-rule:evenodd;fill:#FF6600;}
	.st1{fill:#9D9D9C;}
</style>
<path class="st0" d="M819.7,1699.48c-19.84,91.53-39.68,183.06-59.53,274.59h122.48h14.84h145.11l9.89-48.31l67.54,44.22
	l67.55,44.22l-85.65,44.22l-85.65,44.23l10.11-49.4H880.32h-14.84H714.46c-27.84,0-45.69-22.78-39.65-50.63
	c23.97-110.56,47.94-221.12,71.91-331.69c6.04-27.85,33.76-50.63,61.6-50.63h377.16c178.6,0,293.04,146.13,254.32,324.72l0,0
	c-38.71,178.59-216.52,324.72-395.11,324.72c-78.56,0-120.51,0-199.07,0c-27.84,0-45.69-22.78-39.65-50.63l31.7-146.22h79.18
	l-25.51,117.67c69.04,0,101.48,0,170.52,0c134.89,0,269.52-110.65,298.77-245.54c29.24-134.89-57.42-245.54-192.31-245.54H819.7
	L819.7,1699.48z M942.05,1956.62l25.6-118.11h212.37c8.64,0,17.25-7.07,19.12-15.71l10.35-47.76c1.88-8.64-3.66-15.71-12.3-15.71
	H964.12h-7.85c-27.84,0-55.57,22.78-61.6,50.63l-31.8,146.66H942.05z"/>
<g>
	<path class="st1" d="M1653.75,1911.96v-172.48h55.56c15.24,0,28.94,3.46,41.11,10.36c12.16,6.91,21.66,16.67,28.49,29.26
		c6.83,12.6,10.29,26.71,10.37,42.35v7.94c0,15.8-3.34,29.95-10.01,42.47c-6.67,12.52-16.07,22.31-28.19,29.38
		c-12.12,7.07-25.65,10.64-40.57,10.72H1653.75z M1695.33,1771.59v108.39h14.45c11.92,0,21.09-4.24,27.48-12.73
		c6.4-8.49,9.6-21.11,9.6-37.85v-7.46c0-16.66-3.2-29.22-9.6-37.67c-6.4-8.45-15.72-12.68-27.96-12.68H1695.33z"/>
	<path class="st1" d="M1928.5,1873.23c6.32,0,11.57,1.88,15.75,5.63c4.19,3.75,6.28,8.55,6.28,14.39c0,5.84-2.09,10.64-6.28,14.39
		c-4.19,3.75-9.44,5.63-15.75,5.63c-6.4,0-11.67-1.9-15.81-5.69s-6.22-8.57-6.22-14.33c0-5.76,2.07-10.54,6.22-14.33
		C1916.83,1875.12,1922.1,1873.23,1928.5,1873.23z"/>
	<path class="st1" d="M2213.55,1853.56c-0.55,12-3.79,22.61-9.71,31.81c-5.92,9.2-14.23,16.33-24.94,21.38
		c-10.7,5.05-22.92,7.58-36.66,7.58c-22.67,0-40.51-7.38-53.54-22.15c-13.03-14.77-19.55-35.62-19.55-62.55v-8.53
		c0-16.9,2.94-31.69,8.83-44.36c5.88-12.68,14.35-22.47,25.41-29.38c11.06-6.91,23.85-10.37,38.38-10.37
		c20.93,0,37.75,5.51,50.46,16.53c12.71,11.02,19.94,26.2,21.68,45.55h-41.46c-0.32-10.5-2.96-18.05-7.94-22.63
		c-4.98-4.58-12.56-6.87-22.74-6.87c-10.35,0-17.93,3.87-22.74,11.61c-4.82,7.74-7.34,20.1-7.58,37.08v12.2
		c0,18.4,2.31,31.55,6.93,39.45c4.62,7.9,12.58,11.85,23.87,11.85c9.55,0,16.86-2.25,21.92-6.75c5.05-4.5,7.74-11.65,8.06-21.44
		H2213.55z"/>
	<path class="st1" d="M2430.48,1879.74h-56.98l-9.95,32.22h-44.42l63.26-172.48h39.09l63.73,172.48h-44.66L2430.48,1879.74z
		 M2383.46,1847.64h37.08l-18.6-59.82L2383.46,1847.64z"/>
	<path class="st1" d="M2597.07,1911.96v-172.48h61.96c22.19,0,39.07,4.07,50.64,12.2c11.57,8.13,17.36,19.94,17.36,35.42
		c0,8.92-2.06,16.55-6.16,22.86c-4.11,6.32-10.15,10.98-18.12,13.98c9,2.37,15.91,6.79,20.73,13.27c4.82,6.48,7.23,14.37,7.23,23.69
		c0,16.9-5.35,29.6-16.05,38.09c-10.7,8.49-26.55,12.81-47.56,12.97H2597.07z M2638.65,1811.39h21.68
		c9.08-0.08,15.56-1.74,19.43-4.99c3.87-3.25,5.8-8.04,5.8-14.38c0-7.29-2.09-12.53-6.28-15.74c-4.19-3.21-10.94-4.81-20.26-4.81
		h-20.38V1811.39z M2638.65,1838.64v41.34h27.25c7.5,0,13.27-1.72,17.3-5.15c4.03-3.44,6.04-8.27,6.04-14.51
		c0-14.37-7.15-21.6-21.44-21.68H2638.65z"/>
</g>
<g>
	<path class="st1" d="M1652.16,2146.05v-98.56h27.82c8.57,0,16.16,1.9,22.74,5.69c6.59,3.79,11.68,9.18,15.26,16.18
		c3.59,7,5.4,15.03,5.45,24.1v6.3c0,9.3-1.79,17.44-5.38,24.44c-3.59,7-8.71,12.37-15.37,16.11c-6.66,3.75-14.41,5.66-23.25,5.75
		H1652.16z M1665.16,2058.11v77.3h13.67c10.02,0,17.81-3.12,23.39-9.35c5.57-6.23,8.36-15.11,8.36-26.63v-5.76
		c0-11.2-2.63-19.91-7.89-26.12c-5.26-6.21-12.72-9.36-22.37-9.45H1665.16z"/>
	<path class="st1" d="M1813.09,2147.4c-9.93,0-18.01-3.26-24.23-9.78c-6.23-6.52-9.34-15.24-9.34-26.16v-2.3
		c0-7.27,1.39-13.75,4.16-19.46c2.78-5.71,6.66-10.18,11.64-13.4c4.99-3.23,10.39-4.84,16.21-4.84c9.52,0,16.92,3.14,22.2,9.41
		c5.28,6.27,7.92,15.25,7.92,26.94v5.21h-49.62c0.18,7.22,2.29,13.05,6.33,17.5c4.04,4.45,9.17,6.67,15.4,6.67
		c4.42,0,8.17-0.9,11.24-2.71c3.07-1.8,5.75-4.2,8.06-7.18l7.65,5.96C1834.57,2142.68,1825.37,2147.4,1813.09,2147.4z
		 M1811.54,2081.74c-5.05,0-9.3,1.84-12.73,5.52c-3.43,3.68-5.55,8.83-6.36,15.47h36.69v-0.95c-0.36-6.36-2.08-11.29-5.14-14.79
		C1820.92,2083.49,1816.77,2081.74,1811.54,2081.74z"/>
	<path class="st1" d="M1911.34,2146.05h-12.52v-103.97h12.52V2146.05z"/>
	<path class="st1" d="M1973.04,2053.38c0-2.03,0.62-3.75,1.86-5.14c1.24-1.4,3.08-2.1,5.52-2.1s4.29,0.7,5.55,2.1
		c1.26,1.4,1.9,3.11,1.9,5.14s-0.63,3.72-1.9,5.08c-1.26,1.35-3.11,2.03-5.55,2.03s-4.28-0.68-5.52-2.03
		C1973.66,2057.1,1973.04,2055.41,1973.04,2053.38z M1986.58,2146.05h-12.52v-73.24h12.52V2146.05z"/>
	<path class="st1" d="M2072.37,2129.06l18.14-56.25h12.79l-26.26,73.24h-9.54l-26.54-73.24h12.79L2072.37,2129.06z"/>
	<path class="st1" d="M2187.33,2147.4c-9.93,0-18.01-3.26-24.23-9.78c-6.23-6.52-9.34-15.24-9.34-26.16v-2.3
		c0-7.27,1.39-13.75,4.16-19.46c2.78-5.71,6.66-10.18,11.64-13.4c4.99-3.23,10.39-4.84,16.21-4.84c9.52,0,16.92,3.14,22.2,9.41
		c5.28,6.27,7.92,15.25,7.92,26.94v5.21h-49.62c0.18,7.22,2.29,13.05,6.33,17.5c4.04,4.45,9.17,6.67,15.4,6.67
		c4.42,0,8.17-0.9,11.24-2.71c3.07-1.8,5.75-4.2,8.06-7.18l7.65,5.96C2208.82,2142.68,2199.61,2147.4,2187.33,2147.4z
		 M2185.78,2081.74c-5.05,0-9.3,1.84-12.73,5.52c-3.43,3.68-5.55,8.83-6.36,15.47h36.69v-0.95c-0.36-6.36-2.08-11.29-5.14-14.79
		C2195.16,2083.49,2191.01,2081.74,2185.78,2081.74z"/>
	<path class="st1" d="M2307.38,2084.04c-1.9-0.31-3.95-0.47-6.16-0.47c-8.21,0-13.79,3.5-16.72,10.49v51.99h-12.52v-73.24h12.18
		l0.2,8.46c4.11-6.54,9.93-9.82,17.46-9.82c2.44,0,4.29,0.32,5.55,0.95V2084.04z"/>
	<path class="st1" d="M2384.44,2127.7l17.06-54.9h13.4l-29.45,84.55c-4.56,12.18-11.8,18.28-21.73,18.28l-2.37-0.2l-4.67-0.88
		v-10.15l3.38,0.27c4.24,0,7.55-0.86,9.92-2.57c2.37-1.72,4.32-4.85,5.86-9.41l2.78-7.45l-26.13-72.43h13.67L2384.44,2127.7z"/>
	<path class="st1" d="M2554.78,2102.11c-11.15-3.2-19.26-7.14-24.34-11.81c-5.08-4.67-7.62-10.43-7.62-17.3
		c0-7.76,3.1-14.18,9.31-19.26c6.2-5.08,14.27-7.62,24.2-7.62c6.77,0,12.8,1.31,18.11,3.93c5.3,2.62,9.41,6.23,12.32,10.83
		c2.91,4.6,4.37,9.64,4.37,15.1h-13.06c0-5.98-1.9-10.68-5.69-14.1c-3.79-3.42-9.14-5.13-16.04-5.13c-6.41,0-11.41,1.41-14.99,4.24
		c-3.59,2.83-5.38,6.75-5.38,11.77c0,4.03,1.7,7.43,5.11,10.21c3.41,2.78,9.21,5.32,17.4,7.63c8.19,2.31,14.6,4.85,19.22,7.62
		c4.63,2.78,8.06,6.01,10.29,9.71c2.23,3.7,3.35,8.06,3.35,13.06c0,7.99-3.11,14.38-9.34,19.19c-6.23,4.81-14.55,7.21-24.98,7.21
		c-6.77,0-13.09-1.3-18.95-3.89c-5.87-2.59-10.39-6.15-13.57-10.66c-3.18-4.51-4.77-9.63-4.77-15.37h13.06
		c0,5.96,2.2,10.66,6.6,14.11c4.4,3.45,10.28,5.18,17.63,5.18c6.86,0,12.12-1.4,15.77-4.2c3.66-2.8,5.48-6.61,5.48-11.44
		c0-4.83-1.69-8.56-5.08-11.2C2569.81,2107.29,2563.67,2104.69,2554.78,2102.11z"/>
	<path class="st1" d="M2644.29,2108.75c0-7.18,1.41-13.63,4.23-19.36c2.82-5.73,6.75-10.15,11.78-13.27
		c5.03-3.11,10.77-4.67,17.23-4.67c9.97,0,18.04,3.45,24.2,10.36s9.24,16.09,9.24,27.55v0.88c0,7.13-1.37,13.53-4.1,19.19
		c-2.73,5.66-6.63,10.08-11.71,13.23c-5.08,3.16-10.91,4.74-17.5,4.74c-9.93,0-17.97-3.45-24.13-10.36
		c-6.16-6.9-9.24-16.04-9.24-27.42V2108.75z M2656.88,2110.24c0,8.12,1.88,14.64,5.65,19.56c3.77,4.92,8.81,7.38,15.13,7.38
		c6.36,0,11.42-2.49,15.16-7.48c3.75-4.99,5.62-11.97,5.62-20.95c0-8.03-1.91-14.54-5.72-19.53c-3.81-4.99-8.88-7.48-15.2-7.48
		c-6.18,0-11.17,2.46-14.96,7.38C2658.78,2094.04,2656.88,2101.08,2656.88,2110.24z"/>
	<path class="st1" d="M2781.87,2146.05h-12.52v-103.97h12.52V2146.05z"/>
	<path class="st1" d="M2888.72,2138.8c-4.87,5.73-12.03,8.6-21.46,8.6c-7.81,0-13.75-2.27-17.84-6.8
		c-4.08-4.54-6.15-11.25-6.19-20.14v-47.66h12.52v47.32c0,11.1,4.51,16.65,13.54,16.65c9.57,0,15.93-3.56,19.09-10.7v-53.27h12.52
		v73.24h-11.91L2888.72,2138.8z"/>
	<path class="st1" d="M2978.5,2055.07v17.74h13.67v9.68h-13.67v45.48c0,2.94,0.61,5.14,1.83,6.61c1.22,1.47,3.29,2.2,6.23,2.2
		c1.44,0,3.43-0.27,5.96-0.81v10.09c-3.29,0.9-6.5,1.35-9.61,1.35c-5.6,0-9.82-1.69-12.66-5.08s-4.26-8.19-4.26-14.42v-45.42h-13.34
		v-9.68h13.34v-17.74H2978.5z"/>
	<path class="st1" d="M3048.46,2053.38c0-2.03,0.62-3.75,1.86-5.14c1.24-1.4,3.08-2.1,5.52-2.1s4.29,0.7,5.55,2.1
		c1.26,1.4,1.9,3.11,1.9,5.14s-0.63,3.72-1.9,5.08c-1.26,1.35-3.11,2.03-5.55,2.03s-4.28-0.68-5.52-2.03
		C3049.08,2057.1,3048.46,2055.41,3048.46,2053.38z M3061.99,2146.05h-12.52v-73.24h12.52V2146.05z"/>
	<path class="st1" d="M3120.3,2108.75c0-7.18,1.41-13.63,4.23-19.36c2.82-5.73,6.75-10.15,11.78-13.27
		c5.03-3.11,10.77-4.67,17.23-4.67c9.97,0,18.04,3.45,24.2,10.36s9.24,16.09,9.24,27.55v0.88c0,7.13-1.37,13.53-4.1,19.19
		c-2.73,5.66-6.63,10.08-11.71,13.23c-5.08,3.16-10.91,4.74-17.5,4.74c-9.93,0-17.97-3.45-24.13-10.36
		c-6.16-6.9-9.24-16.04-9.24-27.42V2108.75z M3132.89,2110.24c0,8.12,1.88,14.64,5.65,19.56c3.77,4.92,8.81,7.38,15.13,7.38
		c6.36,0,11.42-2.49,15.16-7.48c3.75-4.99,5.62-11.97,5.62-20.95c0-8.03-1.91-14.54-5.72-19.53c-3.81-4.99-8.88-7.48-15.2-7.48
		c-6.18,0-11.17,2.46-14.96,7.38C3134.79,2094.04,3132.89,2101.08,3132.89,2110.24z"/>
	<path class="st1" d="M3256.12,2072.8l0.41,9.21c5.59-7.04,12.91-10.56,21.93-10.56c15.48,0,23.29,8.73,23.42,26.2v48.4h-12.52
		v-48.47c-0.05-5.28-1.25-9.18-3.62-11.71c-2.37-2.53-6.06-3.79-11.07-3.79c-4.06,0-7.63,1.08-10.7,3.25
		c-3.07,2.17-5.46,5.01-7.18,8.53v52.19h-12.52v-73.24H3256.12z"/>
	<path class="st1" d="M3405,2126.62c0-3.38-1.28-6.01-3.82-7.89c-2.55-1.87-7-3.49-13.34-4.84c-6.34-1.35-11.37-2.98-15.1-4.87
		c-3.72-1.9-6.48-4.15-8.26-6.77c-1.78-2.62-2.67-5.73-2.67-9.34c0-6,2.54-11.08,7.62-15.23c5.08-4.15,11.56-6.23,19.46-6.23
		c8.3,0,15.04,2.14,20.21,6.43c5.17,4.29,7.75,9.77,7.75,16.45h-12.59c0-3.43-1.46-6.39-4.37-8.87c-2.91-2.48-6.58-3.72-11-3.72
		c-4.56,0-8.12,0.99-10.7,2.98c-2.57,1.99-3.86,4.58-3.86,7.78c0,3.02,1.19,5.3,3.59,6.84c2.39,1.53,6.71,3,12.96,4.4
		c6.25,1.4,11.31,3.07,15.2,5.01c3.88,1.94,6.76,4.28,8.63,7.01c1.87,2.73,2.81,6.06,2.81,9.98c0,6.54-2.62,11.79-7.85,15.74
		c-5.24,3.95-12.03,5.92-20.38,5.92c-5.87,0-11.06-1.04-15.57-3.11c-4.51-2.08-8.04-4.98-10.59-8.7c-2.55-3.72-3.82-7.75-3.82-12.08
		h12.52c0.23,4.2,1.91,7.53,5.04,9.98c3.14,2.46,7.28,3.69,12.42,3.69c4.74,0,8.54-0.96,11.41-2.88
		C3403.57,2132.38,3405,2129.82,3405,2126.62z"/>
</g>
</svg>
